# Blender v2.80 (sub 75) OBJ File: ''
# www.blender.org
mtllib leatherbook.mtl
o cube
v 0.093478 -7.536828 6.499999
v 0.049900 -8.034925 6.499999
v 0.093478 -7.536826 -6.500001
v 0.049900 -8.034924 -6.500001
v -8.374177 -6.796002 -6.500001
v -8.417755 -7.294100 -6.500001
v -8.374177 -6.796004 6.499999
v -8.417755 -7.294102 6.499999
vt 0.000000 1.000000
vt 0.000000 0.968750
vt 0.812500 1.000000
vt 0.812500 0.968750
vt 0.000000 1.000000
vt 0.000000 0.968750
vt 0.812500 1.000000
vt 0.812500 0.968750
vt 0.000000 0.187500
vt 0.531250 1.000000
vt 0.531250 0.187500
vt 0.000000 1.000000
vt 0.000000 0.187500
vt 0.531250 1.000000
vt 0.531250 0.187500
vt 0.000000 1.000000
vt 0.000000 0.968750
vt 0.531250 1.000000
vt 0.531250 0.968750
vt 0.531250 0.968750
vt 0.531250 1.000000
vt 0.000000 0.968750
vt 0.000000 1.000000
vn 0.9962 -0.0872 -0.0000
vn -0.9962 0.0872 0.0000
vn 0.0872 0.9962 0.0000
vn -0.0872 -0.9962 -0.0000
vn -0.0000 -0.0000 1.0000
vn 0.0000 0.0000 -1.0000
usemtl none
s 1
f 1/1/1 2/2/1 3/3/1
f 2/2/1 4/4/1 3/3/1
usemtl 0
f 5/5/2 6/6/2 7/7/2
f 6/6/2 8/8/2 7/7/2
f 5/5/3 7/9/3 3/10/3
f 7/9/3 1/11/3 3/10/3
f 8/12/4 6/13/4 2/14/4
f 6/13/4 4/15/4 2/14/4
f 7/16/5 8/17/5 1/18/5
f 8/17/5 2/19/5 1/18/5
f 3/20/6 4/21/6 5/22/6
f 4/21/6 6/23/6 5/22/6
o cube.000
v 7.832502 -6.341485 5.994999
v 7.897869 -7.088631 5.994999
v 7.832502 -6.341483 -5.995001
v 7.897869 -7.088629 -5.995001
v -0.137056 -7.038729 -5.995001
v -0.071689 -7.785875 -5.995001
v -0.137056 -7.038731 5.994999
v -0.071689 -7.785877 5.994998
vt 0.000000 1.000000
vt 0.000000 0.953125
vt 0.750000 1.000000
vt 0.750000 0.953125
vt 0.000000 1.000000
vt 0.000000 0.250000
vt 0.500000 1.000000
vt 0.500000 0.250000
vt 0.000000 1.000000
vt 0.000000 0.953125
vt 0.500000 1.000000
vt 0.500000 0.953125
vt 0.000000 1.000000
vt 0.000000 0.953125
vt 0.500000 1.000000
vt 0.500000 0.953125
vt 0.000000 0.953125
vt 0.750000 1.000000
vt 0.750000 0.953125
vt 0.000000 1.000000
vt 0.000000 0.250000
vt 0.500000 1.000000
vt 0.500000 0.250000
vn 0.9962 0.0872 0.0000
vn -0.0872 0.9962 0.0000
vn 0.0000 -0.0000 1.0000
vn -0.0000 0.0000 -1.0000
vn -0.9962 -0.0872 -0.0000
vn 0.0872 -0.9962 -0.0000
usemtl 1
s 1
f 9/24/7 10/25/7 11/26/7
f 10/25/7 12/27/7 11/26/7
f 13/28/8 15/29/8 11/30/8
f 15/29/8 9/31/8 11/30/8
f 15/32/9 16/33/9 9/34/9
f 16/33/9 10/35/9 9/34/9
f 11/36/10 12/37/10 13/38/10
f 12/37/10 14/39/10 13/38/10
usemtl none
f 13/28/11 14/40/11 15/41/11
f 14/40/11 16/42/11 15/41/11
f 16/43/12 14/44/12 10/45/12
f 14/44/12 12/46/12 10/45/12
o cube.001
v 0.137056 -7.038731 5.999999
v 0.071689 -7.785877 5.999999
v 0.137056 -7.038729 -6.000001
v 0.071689 -7.785875 -6.000001
v -7.832502 -6.341483 -6.000001
v -7.897869 -7.088629 -6.000001
v -7.832502 -6.341485 5.999999
v -7.897869 -7.088631 5.999999
vt 0.000000 1.000000
vt 0.000000 0.953125
vt 0.750000 1.000000
vt 0.750000 0.953125
vt 0.000000 1.000000
vt 0.000000 0.250000
vt 0.500000 1.000000
vt 0.500000 0.250000
vt 0.000000 1.000000
vt 0.000000 0.953125
vt 0.750000 1.000000
vt 0.750000 0.953125
vt 0.000000 0.250000
vt 0.500000 1.000000
vt 0.500000 0.250000
vt 0.000000 1.000000
vt 0.000000 0.953125
vt 0.500000 1.000000
vt 0.500000 0.953125
vt 0.000000 1.000000
vt 0.000000 0.953125
vt 0.500000 1.000000
vt 0.500000 0.953125
vn 0.9962 -0.0872 -0.0000
vn -0.0872 -0.9962 -0.0000
vn -0.9962 0.0872 0.0000
vn 0.0872 0.9962 0.0000
vn 0.0000 0.0000 1.0000
vn 0.0000 0.0000 -1.0000
usemtl none
s 1
f 17/47/13 18/48/13 19/49/13
f 18/48/13 20/50/13 19/49/13
f 24/51/14 22/52/14 18/53/14
f 22/52/14 20/54/14 18/53/14
usemtl 1
f 21/55/15 22/56/15 23/57/15
f 22/56/15 24/58/15 23/57/15
f 21/55/16 23/59/16 19/60/16
f 23/59/16 17/61/16 19/60/16
f 23/62/17 24/63/17 17/64/17
f 24/63/17 18/65/17 17/64/17
f 19/66/18 20/67/18 21/68/18
f 20/67/18 22/69/18 21/68/18
o cube.002
v 8.374177 -6.796004 6.499999
v 8.417755 -7.294102 6.499999
v 8.374177 -6.796002 -6.500001
v 8.417755 -7.294100 -6.500001
v -0.093478 -7.536826 -6.500001
v -0.049900 -8.034924 -6.500001
v -0.093478 -7.536828 6.499999
v -0.049900 -8.034925 6.499999
vt 0.000000 1.000000
vt 0.000000 0.968750
vt 0.812500 1.000000
vt 0.812500 0.968750
vt 0.531250 0.187500
vt 0.531250 1.000000
vt 0.000000 0.187500
vt 0.531250 0.187500
vt 0.531250 1.000000
vt 0.000000 0.187500
vt 0.000000 1.000000
vt 0.531250 0.968750
vt 0.531250 1.000000
vt 0.000000 0.968750
vt 0.000000 1.000000
vt 0.000000 1.000000
vt 0.000000 0.968750
vt 0.531250 1.000000
vt 0.531250 0.968750
vt 0.000000 1.000000
vt 0.000000 0.968750
vt 0.812500 1.000000
vt 0.812500 0.968750
vn 0.9962 0.0872 0.0000
vn -0.0872 0.9962 0.0000
vn 0.0872 -0.9962 -0.0000
vn 0.0000 -0.0000 1.0000
vn -0.0000 0.0000 -1.0000
vn -0.9962 -0.0872 -0.0000
usemtl 0
s 1
f 25/70/19 26/71/19 27/72/19
f 26/71/19 28/73/19 27/72/19
f 29/74/20 31/75/20 27/76/20
f 31/75/20 25/70/20 27/76/20
f 32/77/21 30/78/21 26/79/21
f 30/78/21 28/80/21 26/79/21
f 31/81/22 32/82/22 25/83/22
f 32/82/22 26/84/22 25/83/22
f 27/85/23 28/86/23 29/87/23
f 28/86/23 30/88/23 29/87/23
usemtl none
f 29/89/24 30/90/24 31/91/24
f 30/90/24 32/92/24 31/91/24
o cube.003
v 1.000000 -7.500001 6.549999
v 1.000000 -8.000001 6.549999
v -1.000000 -7.500001 6.549999
v -1.000000 -8.000001 6.549999
v 1.000000 -7.499999 -6.550002
v 1.000000 -7.999999 -6.550002
v -1.000000 -7.499999 -6.550002
v -1.000000 -7.999999 -6.550002
v 1.000000 -7.500000 -0.000001
v 1.000000 -7.751894 -0.000001
v 1.000000 -8.000000 -0.000001
v -1.000000 -7.500000 -0.000001
v -1.000000 -7.748106 -0.000001
v -1.000000 -8.000000 -0.000001
v -0.007576 -7.500000 -0.000001
v 0.007576 -8.000000 -0.000001
vt 0.415625 1.000000
vt 0.415625 0.984493
vt 0.825000 1.000000
vt 0.415625 0.968750
vt 0.825000 0.968750
vt 0.000000 0.584375
vt 0.000000 0.175000
vt 0.062027 0.584375
vt 0.062973 0.590625
vt 0.125000 0.590625
vt 0.125000 1.000000
vt 0.000000 1.000000
vt 0.000000 0.968750
vt 0.125000 1.000000
vt 0.125000 0.968750
vt 0.000000 1.000000
vt 0.000000 0.590625
vt 0.000000 0.968750
vt 0.409375 0.968750
vt 0.409375 0.984257
vt 0.000000 1.000000
vt 0.409375 1.000000
vt 0.125000 0.175000
vt 0.125000 0.584375
vt 0.825000 1.000000
vt 0.825000 0.968750
vt 0.000000 0.175000
vt 0.125000 1.000000
vt 0.000000 1.000000
vt 0.125000 1.000000
vt 0.000000 0.968750
vt 0.125000 0.968750
vt 0.000000 1.000000
vt 0.000000 0.968750
vt 0.000000 1.000000
vt 0.125000 0.175000
vn -1.0000 0.0000 0.0000
vn 0.0000 1.0000 0.0000
vn 0.0000 -1.0000 -0.0000
vn 0.0000 0.0000 1.0000
vn 1.0000 -0.0000 0.0000
vn 0.0000 0.0000 -1.0000
usemtl 0
s 1
f 44/93/25 45/94/25 35/95/25
f 46/96/25 36/97/25 35/95/25 45/94/25
f 44/98/26 35/99/26 47/100/26
f 48/101/27 43/102/27 34/103/27
f 35/104/28 36/105/28 33/106/28
f 36/105/28 34/107/28 33/106/28
f 36/108/27 46/109/27 48/101/27 34/103/27
f 34/110/29 43/111/29 42/112/29
f 33/113/29 34/110/29 42/112/29 41/114/29
f 35/99/26 33/115/26 41/116/26 47/100/26
f 44/93/25 39/117/25 45/94/25
f 46/96/25 45/94/25 39/117/25 40/118/25
f 44/98/26 47/100/26 39/119/26
f 48/101/27 38/120/27 43/102/27
f 39/121/30 37/122/30 40/123/30
f 40/123/30 37/122/30 38/124/30
f 40/125/27 38/120/27 48/101/27 46/109/27
f 38/126/29 42/112/29 43/111/29
f 37/127/29 41/114/29 42/112/29 38/126/29
f 39/119/26 47/100/26 41/116/26 37/128/26
